<svg xmlns="http://www.w3.org/2000/svg" viewBox="0 0 512 512" width="100%" height="100%">
  <defs>
    <linearGradient id="orangeGrad" x1="0%" y1="0%" x2="100%" y2="100%">
      <stop offset="0%" stop-color="#FF9900" />
      <stop offset="100%" stop-color="#FF6600" />
    </linearGradient>
    <linearGradient id="blueGrad" x1="0%" y1="0%" x2="100%" y2="100%">
      <stop offset="0%" stop-color="#0099FF" />
      <stop offset="100%" stop-color="#003399" />
    </linearGradient>
    <linearGradient id="greenGrad" x1="0%" y1="0%" x2="100%" y2="100%">
      <stop offset="0%" stop-color="#33CC33" />
      <stop offset="100%" stop-color="#006600" />
    </linearGradient>
    <linearGradient id="redGrad" x1="0%" y1="0%" x2="100%" y2="100%">
      <stop offset="0%" stop-color="#FF3300" />
      <stop offset="100%" stop-color="#990000" />
    </linearGradient>
    <linearGradient id="yellowGrad" x1="0%" y1="0%" x2="100%" y2="100%">
      <stop offset="0%" stop-color="#FFEE00" />
      <stop offset="100%" stop-color="#FF9900" />
    </linearGradient>
  </defs>

  <circle cx="256" cy="230" r="180" fill="url(#yellowGrad)" opacity="0.15" />
  <circle cx="256" cy="230" r="175" fill="none" stroke="url(#orangeGrad)" stroke-width="8" stroke-dasharray="6,6" opacity="0.6" />
  <circle cx="256" cy="230" r="190" fill="none" stroke="url(#orangeGrad)" stroke-width="4" />

  <path d="M 180 270 A 80 80 0 0 1 332 270 Z" fill="url(#yellowGrad)" />

  <path d="M 160 230 C 130 250 140 330 256 340 C 210 340 170 320 160 280 C 150 250 180 200 200 170 C 180 190 170 210 160 230 Z" fill="url(#orangeGrad)" />
  <circle cx="195" cy="155" r="22" fill="url(#orangeGrad)" />

  <path d="M 352 230 C 382 250 372 330 256 340 C 302 340 342 320 352 280 C 362 250 332 200 312 170 C 332 190 342 210 352 230 Z" fill="url(#blueGrad)" />
  <circle cx="317" cy="155" r="22" fill="url(#blueGrad)" />

  <path d="M 210 140 C 230 120 282 120 302 140 C 280 155 232 155 210 140 Z" fill="url(#greenGrad)" />
  <circle cx="256" cy="110" r="20" fill="url(#greenGrad)" />

  <path d="M 200 240 C 220 255 292 255 312 240 C 312 240 280 340 256 340 C 232 340 200 240 200 240 Z" fill="url(#redGrad)" />
  <circle cx="256" cy="215" r="24" fill="url(#redGrad)" />

  <path d="M 130 350 Q 256 365 382 350 Q 256 355 130 350" fill="#003399" />
</svg>
